<svg xmlns="http://www.w3.org/2000/svg" viewBox="0 0 396.001 396.001">
  <g fill="#FFF">
    <path d="M112.718 122.651L271.158 5.286c2.27-1.682 1.08-5.286-1.745-5.286H139.531a56.804 56.804 0 0 0-40.163 16.634L16.638 99.35A56.792 56.792 0 0 0 0 139.512V256.49a56.79 56.79 0 0 0 16.637 40.16l82.727 82.715a56.809 56.809 0 0 0 40.167 16.636h112.518c3.13 0 4.081-4.247 1.25-5.582L29.697 285.01a26.658 26.658 0 0 1-15.291-24.112V204.79a18.49 18.49 0 0 1 7.485-14.859l32.217-23.864v-43.416h58.61z"/>
    <path d="M266.823 167.929l-15.266 41.633h29.935zM138.216 169.592c0-13.303-9.084-15.228-18.716-15.228h-19.274v31.365h18.563c9.83 0 19.427-1.28 19.427-16.137z"/>
    <path d="M381.634 101.56L304.61 24.53a12.65 12.65 0 0 0-16.175-1.437l-148.24 99.83c28.072 1.753 45.064 13.131 45.064 39.074 0 22.635-12.222 36.728-32.87 39.175v.386c9.589 1.772 15.977 6.219 20.692 12.208 1.653 2.087 2.79 4.55 3.431 7.15l11.707 35.48 50.391-126.197a11.671 11.671 0 0 1 10.84-7.343h44.272l58.853 147.398h-36.428c-7.393 0-14.308-4.676-17.436-11.688v-.034l-5.668-16.116h-53.472l-10.378 27.838h-79.872c-4.265 0-7.909-3.145-8.646-7.456l-13.288-38.629c-1.844-6.609-8.42-7.658-14.874-7.658H99.576v53.743H54.108V180.9L26.91 199.215a9.176 9.176 0 0 0-3.93 7.528v56.89a9.174 9.174 0 0 0 5.519 8.413l256.46 107.334a12.65 12.65 0 0 0 13.966-2.638l82.634-82.286a49.253 49.253 0 0 0 14.5-34.9v-123.17a49.252 49.252 0 0 0-14.424-34.825z"/>
  </g>
</svg>
